<?xml version="1.0" encoding="utf-8"?>
<!-- Generator: Adobe Illustrator 21.1.0, SVG Export Plug-In . SVG Version: 6.00 Build 0)  -->
<svg version="1.1"
	 id="svg12" inkscape:version="0.92.3 (2405546, 2018-03-11)" sodipodi:docname="logo.svg" xmlns:cc="http://creativecommons.org/ns#" xmlns:dc="http://purl.org/dc/elements/1.1/" xmlns:inkscape="http://www.inkscape.org/namespaces/inkscape" xmlns:rdf="http://www.w3.org/1999/02/22-rdf-syntax-ns#" xmlns:sodipodi="http://sodipodi.sourceforge.net/DTD/sodipodi-0.dtd" xmlns:svg="http://www.w3.org/2000/svg"
	 xmlns="http://www.w3.org/2000/svg" xmlns:xlink="http://www.w3.org/1999/xlink" x="0px" y="0px" viewBox="0 0 20 26"
	 style="enable-background:new 0 0 20 26;" xml:space="preserve">
<style type="text/css">
	.st0{opacity:0.5;}
	.st1{filter:url(#Adobe_OpacityMaskFilter);}
	.st2{opacity:0.5;mask:url(#SVGID_1_);}
	.st3{filter:url(#Adobe_OpacityMaskFilter_1_);}
	.st4{opacity:0.5;mask:url(#SVGID_2_);}
	.st5{filter:url(#Adobe_OpacityMaskFilter_2_);}
	.st6{fill:#FF9E1F;}
</style>
<title  id="svgtitle" lang="en">Return to homepage</title>
<sodipodi:namedview  bordercolor="#666666" borderopacity="1" gridtolerance="10" guidetolerance="10" id="namedview14" inkscape:current-layer="svg12" inkscape:cx="25.333333" inkscape:cy="25.333333" inkscape:pageopacity="0" inkscape:pageshadow="2" inkscape:window-height="907" inkscape:window-maximized="0" inkscape:window-width="1651" inkscape:window-x="0" inkscape:window-y="0" inkscape:zoom="4.6578947" objecttolerance="10" pagecolor="#ffffff" showgrid="false">
	</sodipodi:namedview>
<g id="text4528_1_" class="st0">
	<g>
		<g>
			<g>
				<path id="path4530_34_" inkscape:connector-curvature="0" d="M3.2,22.8c0-6.3,0-12.6,0-18.9c-1,0-2.1,0-3.1,0c0-1.1,0-2.1,0-3.2
					c3.6,0,7.2-0.1,10.7,0.1C12.7,0.9,14.7,1,16,2.5c2.5,2.3,2.7,6.6,0.4,9c-0.4,0.6-2.2,1-0.7,1.3c2.6,1.2,4,4.3,3.5,7.1
					c-0.3,2.4-2.1,4.6-4.5,5.3c-2.8,0.9-5.8,0.7-8.6,0.7c-2,0-4,0-6,0c0-1.1,0-2.1,0-3.2C1.1,22.8,2.2,22.8,3.2,22.8z M7,11.2
					c2-0.1,4.1,0.3,5.9-0.7c1.5-1.1,1.8-3.4,0.9-4.9C12.7,4,10.6,3.9,8.9,3.9c-0.6,0-1.2,0-1.9,0C7,6.3,7,8.7,7,11.2z M7,22.8
					c2,0,4.1,0.1,6-0.4c1.8-0.6,2.7-2.6,2.5-4.4c-0.1-1.8-1.7-3.3-3.5-3.4c-1.7-0.3-3.3-0.2-5-0.2C7,17.1,7,19.9,7,22.8z"/>
			</g>
		</g>
		<defs>
			<filter id="Adobe_OpacityMaskFilter" filterUnits="userSpaceOnUse" x="0.1" y="0.7" width="19.2" height="25.2">
				
					<feColorMatrix  type="matrix" values="-1 0 0 0 1  0 -1 0 0 1  0 0 -1 0 1  0 0 0 1 0" color-interpolation-filters="sRGB" result="source"/>
			</filter>
		</defs>
		<mask maskUnits="userSpaceOnUse" x="0.1" y="0.7" width="19.2" height="25.2" id="SVGID_1_">
			<g class="st1">
				<image style="overflow:visible;" width="24" height="30" xlink:href="77B9517A.jpg"  transform="matrix(1 0 0 1 -2.5 -1.6667)">
				</image>
			</g>
		</mask>
		<g class="st2">
			<g>
				<path id="path4530_31_" inkscape:connector-curvature="0" d="M3.2,22.8c0-6.3,0-12.6,0-18.9c-1,0-2.1,0-3.1,0c0-1.1,0-2.1,0-3.2
					c3.6,0,7.2-0.1,10.7,0.1C12.7,0.9,14.7,1,16,2.5c2.5,2.3,2.7,6.6,0.4,9c-0.4,0.6-2.2,1-0.7,1.3c2.6,1.2,4,4.3,3.5,7.1
					c-0.3,2.4-2.1,4.6-4.5,5.3c-2.8,0.9-5.8,0.7-8.6,0.7c-2,0-4,0-6,0c0-1.1,0-2.1,0-3.2C1.1,22.8,2.2,22.8,3.2,22.8z M7,11.2
					c2-0.1,4.1,0.3,5.9-0.7c1.5-1.1,1.8-3.4,0.9-4.9C12.7,4,10.6,3.9,8.9,3.9c-0.6,0-1.2,0-1.9,0C7,6.3,7,8.7,7,11.2z M7,22.8
					c2,0,4.1,0.1,6-0.4c1.8-0.6,2.7-2.6,2.5-4.4c-0.1-1.8-1.7-3.3-3.5-3.4c-1.7-0.3-3.3-0.2-5-0.2C7,17.1,7,19.9,7,22.8z"/>
			</g>
		</g>
	</g>
	<defs>
		<filter id="Adobe_OpacityMaskFilter_1_" filterUnits="userSpaceOnUse" x="0.1" y="0.7" width="19.2" height="25.2">
			
				<feColorMatrix  type="matrix" values="-1 0 0 0 1  0 -1 0 0 1  0 0 -1 0 1  0 0 0 1 0" color-interpolation-filters="sRGB" result="source"/>
		</filter>
	</defs>
	<mask maskUnits="userSpaceOnUse" x="0.1" y="0.7" width="19.2" height="25.2" id="SVGID_2_">
		<g class="st3">
			<image style="overflow:visible;" width="24" height="30" xlink:href="77B9517C.jpg"  transform="matrix(1 0 0 1 -2.5 -1.6667)">
			</image>
		</g>
	</mask>
	<g class="st4">
		<g>
			<g>
				<path id="path4530_28_" inkscape:connector-curvature="0" d="M3.2,22.8c0-6.3,0-12.6,0-18.9c-1,0-2.1,0-3.1,0c0-1.1,0-2.1,0-3.2
					c3.6,0,7.2-0.1,10.7,0.1C12.7,0.9,14.7,1,16,2.5c2.5,2.3,2.7,6.6,0.4,9c-0.4,0.6-2.2,1-0.7,1.3c2.6,1.2,4,4.3,3.5,7.1
					c-0.3,2.4-2.1,4.6-4.5,5.3c-2.8,0.9-5.8,0.7-8.6,0.7c-2,0-4,0-6,0c0-1.1,0-2.1,0-3.2C1.1,22.8,2.2,22.8,3.2,22.8z M7,11.2
					c2-0.1,4.1,0.3,5.9-0.7c1.5-1.1,1.8-3.4,0.9-4.9C12.7,4,10.6,3.9,8.9,3.9c-0.6,0-1.2,0-1.9,0C7,6.3,7,8.7,7,11.2z M7,22.8
					c2,0,4.1,0.1,6-0.4c1.8-0.6,2.7-2.6,2.5-4.4c-0.1-1.8-1.7-3.3-3.5-3.4c-1.7-0.3-3.3-0.2-5-0.2C7,17.1,7,19.9,7,22.8z"/>
			</g>
		</g>
		<defs>
			<filter id="Adobe_OpacityMaskFilter_2_" filterUnits="userSpaceOnUse" x="0.1" y="0.7" width="19.2" height="25.2">
				
					<feColorMatrix  type="matrix" values="-1 0 0 0 1  0 -1 0 0 1  0 0 -1 0 1  0 0 0 1 0" color-interpolation-filters="sRGB" result="source"/>
			</filter>
		</defs>
		<mask maskUnits="userSpaceOnUse" x="0.1" y="0.7" width="19.2" height="25.2" id="SVGID_2_">
			<g class="st5">
				<image style="overflow:visible;" width="24" height="30" xlink:href="77B95173.jpg"  transform="matrix(1 0 0 1 -2.5 -1.6667)">
				</image>
			</g>
		</mask>
		<g class="st0">
			<g>
				<path id="path4530_25_" inkscape:connector-curvature="0" d="M3.2,22.8c0-6.3,0-12.6,0-18.9c-1,0-2.1,0-3.1,0c0-1.1,0-2.1,0-3.2
					c3.6,0,7.2-0.1,10.7,0.1C12.7,0.9,14.7,1,16,2.5c2.5,2.3,2.7,6.6,0.4,9c-0.4,0.6-2.2,1-0.7,1.3c2.6,1.2,4,4.3,3.5,7.1
					c-0.3,2.4-2.1,4.6-4.5,5.3c-2.8,0.9-5.8,0.7-8.6,0.7c-2,0-4,0-6,0c0-1.1,0-2.1,0-3.2C1.1,22.8,2.2,22.8,3.2,22.8z M7,11.2
					c2-0.1,4.1,0.3,5.9-0.7c1.5-1.1,1.8-3.4,0.9-4.9C12.7,4,10.6,3.9,8.9,3.9c-0.6,0-1.2,0-1.9,0C7,6.3,7,8.7,7,11.2z M7,22.8
					c2,0,4.1,0.1,6-0.4c1.8-0.6,2.7-2.6,2.5-4.4c-0.1-1.8-1.7-3.3-3.5-3.4c-1.7-0.3-3.3-0.2-5-0.2C7,17.1,7,19.9,7,22.8z"/>
			</g>
		</g>
	</g>
</g>
<g id="text4528">
	<path id="path4530" inkscape:connector-curvature="0" class="st6" d="M3.8,22.2c0-6.3,0-12.6,0-18.9c-1,0-2.1,0-3.1,0
		c0-1.1,0-2.1,0-3.2c3.6,0,7.2-0.1,10.7,0.1c1.9,0.1,3.9,0.2,5.2,1.7c2.5,2.3,2.7,6.6,0.4,9c-0.4,0.6-2.2,1-0.7,1.3
		c2.6,1.2,4,4.3,3.5,7.1c-0.3,2.4-2.1,4.6-4.5,5.3c-2.8,0.9-5.8,0.7-8.6,0.7c-2,0-4,0-6,0c0-1.1,0-2.1,0-3.2
		C1.7,22.2,2.8,22.2,3.8,22.2z M7.6,10.6c2-0.1,4.1,0.3,5.9-0.7C15,8.8,15.3,6.5,14.4,5c-1.1-1.6-3.2-1.7-4.9-1.7
		c-0.6,0-1.2,0-1.9,0C7.6,5.7,7.6,8.1,7.6,10.6z M7.6,22.2c2,0,4.1,0.1,6-0.4c1.8-0.6,2.7-2.6,2.5-4.4c-0.1-1.8-1.7-3.3-3.5-3.4
		c-1.7-0.3-3.3-0.2-5-0.2C7.6,16.5,7.6,19.3,7.6,22.2z"/>
</g>
</svg>
